<svg width="40" height="40" viewBox="0 0 40 40" fill="none" xmlns="http://www.w3.org/2000/svg">
<path d="M20 40H40V20L20 20L20 40Z" fill="#000000"/>
<path d="M20 10C20 15.5228 24.4771 20 30 20C35.5228 20 40 15.5228 40 10C40 4.47715 35.5228 0 30 0C24.4771 0 20 4.47715 20 10Z" fill="#000000"/>
<path d="M-3.05176e-05 20L20 20L20 0L-3.05176e-05 0L-3.05176e-05 20Z" fill="#000000"/>
<path d="M-3.05176e-05 30C-3.05176e-05 35.5228 4.47713 40 9.99999 40C15.5228 40 20 35.5228 20 30C20 24.4771 15.5228 20 9.99999 20C4.47713 20 -3.05176e-05 24.4771 -3.05176e-05 30Z" fill="#000000"/>
</svg>
